# xmcd
# 
# Track frame offsets:
#     150
#     18570
#     31545
#     45507
#     56672
#     67885
#     84837
#     97880
#     110755
#     126850
#     140787
#     158125
#     178077
#     195472
#     210015
#     224002
#     237300
#     248962
#     266287
#     281237
# 
# Disc length: 3915
# 
# Revision: 3
# Processed by: cddbd v1.5.2PL0 Copyright (c) Steve Scherf et al.
# Submitted via: fre:ac v1.1beta1pre2
# 
DISCID=180f4914
DTITLE=Jean Ferrat - Ferrat 1972-1975
DYEAR=1980
DGENRE=Chanson française
TTITLE0=A moi l'Afrique
TTITLE1=Picasso Colombe
TTITLE2=Une femme honnête
TTITLE3=A l'ombre bleue du figuier
TTITLE4=Si j'étais peintre ou maçon
TTITLE5=Les saisons
TTITLE6=La leçon buissonnière
TTITLE7=Paris An 2000
TTITLE8=Hou hou méfions nous
TTITLE9=Ils volent volent volent
TTITLE10=La Femme est l'avenir de l'Homme
TTITLE11=Le bruit des bottes
TTITLE12=Berceuse pour un petit loupiot
TTITLE13=Un jeune
TTITLE14=Dans le silence de la Ville
TTITLE15=Le singe
TTITLE16=Je meurs
TTITLE17=Le fantôme
TTITLE18=Un air de liberté
TTITLE19=Mon chant est un ruisseau
EXTD=
EXTT0=
EXTT1=
EXTT2=
EXTT3=
EXTT4=
EXTT5=
EXTT6=
EXTT7=
EXTT8=
EXTT9=
EXTT10=
EXTT11=
EXTT12=
EXTT13=
EXTT14=
EXTT15=
EXTT16=
EXTT17=
EXTT18=
EXTT19=
PLAYORDER=
